<svg xmlns="http://www.w3.org/2000/svg" width="62.3" height="60.026" viewBox="0 0 62.3 60.026">
  <path id="github" d="M31.15,0C13.947,0,0,13.438,0,30.013S13.947,60.026,31.15,60.026,62.3,46.589,62.3,30.013,48.353,0,31.15,0Zm0,3.268c15.331,0,27.758,11.974,27.758,26.745S46.481,56.758,31.15,56.758,3.392,44.785,3.392,30.013,15.819,3.268,31.15,3.268ZM17.373,11.1a10.4,10.4,0,0,0-.358,6.716,9.97,9.97,0,0,0-1.992,3.151c-1.265,3.853-.957,8.776,1.814,11.753a10.94,10.94,0,0,0,3.954,2.536A21.625,21.625,0,0,0,27.2,36.526c-1.753.789-2.987,1.271-3.418,3.015a5.147,5.147,0,0,1-6.053-.41c-1.362-.957-1.978-2.66-3.487-3.29a1.871,1.871,0,0,0-.89-.205,1.32,1.32,0,0,0-1.175.41c-.142.137-.132.283.035.444A10.978,10.978,0,0,1,15.1,39.472a8.689,8.689,0,0,0,1.921,2.708A7.6,7.6,0,0,0,23.5,43.242c-.253,1.467.429,3.758-.073,5.071a2.919,2.919,0,0,1-.817.96c-.317.3-1.3.672-1.1,1.129.1.205.427.332,1,.377a4.2,4.2,0,0,0,3.24-1.472,2.144,2.144,0,0,0,.391-1.337V42.349a1.849,1.849,0,0,1,.426-1.371,2.183,2.183,0,0,1,.928-.55v7.4a6.666,6.666,0,0,1-.178,1.646,5.183,5.183,0,0,1-.32.96c-.218.352-.635.677-.642,1.1,0,.137.085.215.251.238a3.977,3.977,0,0,0,3.2-1.747,5.826,5.826,0,0,0,.6-2.6V40.154h1.566v7.265a5.558,5.558,0,0,0,.642,2.6A3.036,3.036,0,0,0,34.746,51.6a3.454,3.454,0,0,0,1.064.168c.19-.023.275-.1.251-.238a3.227,3.227,0,0,0-.6-1.1,4.551,4.551,0,0,1-.5-2.6v-7.4a2.418,2.418,0,0,1,.962.55,1.755,1.755,0,0,1,.46,1.371v5.616a2.144,2.144,0,0,0,.391,1.337,4.15,4.15,0,0,0,3.24,1.472c.569-.045.9-.172,1-.377s.024-.375-.213-.514a8.912,8.912,0,0,1-.89-.615,2.863,2.863,0,0,1-.817-.96c-.213-2.356-.005-4.882-.178-7.265-.343-2.6-1.381-3.455-3.452-4.452a19.128,19.128,0,0,0,6.088-1.3c4.754-2.226,6.067-5.666,6.088-10.276a10.47,10.47,0,0,0-2.992-7.54,8.891,8.891,0,0,0,.251-3.286,10.953,10.953,0,0,0-.749-3.085,11.143,11.143,0,0,0-4.415,1.025,16.035,16.035,0,0,0-2.563,1.509,27.671,27.671,0,0,0-12.742.135,12.732,12.732,0,0,0-7.05-2.671Z" fill="#fff"/>
</svg>
