<svg xmlns="http://www.w3.org/2000/svg" width="59.247" height="54.524" viewBox="0 0 59.247 54.524">
  <path id="linkedin" d="M0,0V54.524H59.247V0ZM14.53,10.719c2.347.024,4.657,1.515,4.76,4.094.049,2.293-2.121,4.041-4.82,4.094H14.4a4.486,4.486,0,0,1-4.7-4.094c.033-2.267,2.1-4.039,4.824-4.094ZM39.705,21.555a9.946,9.946,0,0,1,7.016,2.6c2.079,2.134,2.747,5.075,2.821,8.067v13.6h-8.52V33.143c-.02-2.376-.9-5.265-4.322-5.362a4.859,4.859,0,0,0-4.383,2.882,4.765,4.765,0,0,0-.314,1.9V45.823H23.487c.033-6.628.077-13.255.061-19.885q0-2.824-.061-3.8H32v3.341a10.972,10.972,0,0,1,2.6-2.566,9.38,9.38,0,0,1,5.1-1.354Zm-29.5.579h8.517V45.822H10.209V22.134Z" fill="#fff"/>
</svg>
