<svg xmlns="http://www.w3.org/2000/svg" width="52.9" height="43.1" viewBox="0 0 52.9 43.1">
  <path id="twitter" d="M52.9,8.043a13.894,13.894,0,0,1-1.975,2.767,14.5,14.5,0,0,1-3.568,2.941q.06.461.088.865a30.766,30.766,0,0,1-2.27,12.022A31.806,31.806,0,0,1,32.29,42.292c-6.229,3.494-13.485,4.237-20.17,3.6A23.467,23.467,0,0,1,0,41.312a22.949,22.949,0,0,0,16.159-4.556C11.2,36.878,7.6,33.373,5.9,29.319a7.055,7.055,0,0,0,2.3.115,21.857,21.857,0,0,0,2.6-.346,12.127,12.127,0,0,1-7.372-5.593,11.834,11.834,0,0,1-1.239-5.3,10.534,10.534,0,0,0,4.895,1.441c-2.464-2.04-4.439-4.649-4.807-7.64A13.874,13.874,0,0,1,3.6,5.1a37.009,37.009,0,0,0,12.592,9.225,26.6,26.6,0,0,0,9.878,2.019,12.655,12.655,0,0,1,1.327-8.188A11.4,11.4,0,0,1,34.2,3.314,10.194,10.194,0,0,1,44.289,6.369a18.206,18.206,0,0,0,7.018-2.537,10.447,10.447,0,0,1-4.836,6.112,31.186,31.186,0,0,0,6.427-1.9Z" transform="translate(0 -2.999)" fill="#fff"/>
</svg>
